<svg id="Layer_1" data-name="Layer 1" xmlns="http://www.w3.org/2000/svg" viewBox="0 0 32.87 51.52"><path d="M758.52,508.22a18.31,18.31,0,0,1,5.56.85,13.39,13.39,0,0,1,4.66,2.56,12.23,12.23,0,0,1,3.2,4.28,14.17,14.17,0,0,1,1.19,6,15.76,15.76,0,0,1-.88,5.35,22.13,22.13,0,0,1-2.39,4.73,35.32,35.32,0,0,1-3.51,4.41c-1.34,1.43-2.73,2.89-4.2,4.37L746.2,557.08a18.19,18.19,0,0,1,2.4-.44,23.13,23.13,0,0,1,2.5-.14h22a1.21,1.21,0,0,1,.91.34,1.19,1.19,0,0,1,.35.88v2H741.49v-1.22a1.73,1.73,0,0,1,.2-.81,2.61,2.61,0,0,1,.48-.71l17.39-17.6q2.16-2.19,4-4.25a34.18,34.18,0,0,0,3.18-4.14,20.58,20.58,0,0,0,2.13-4.28,14.18,14.18,0,0,0,.77-4.68,11.67,11.67,0,0,0-.94-4.88,9.44,9.44,0,0,0-2.5-3.4,10.2,10.2,0,0,0-3.6-2,14,14,0,0,0-4.26-.65,13,13,0,0,0-4.45.74,11.6,11.6,0,0,0-3.6,2,11.37,11.37,0,0,0-2.59,3.13,12.43,12.43,0,0,0-1.42,4,1.46,1.46,0,0,1-1.44,1.26l-.18,0-.18,0-1.73-.28a17.29,17.29,0,0,1,1.78-5.84,14.71,14.71,0,0,1,3.4-4.32,14.31,14.31,0,0,1,4.75-2.68A18.1,18.1,0,0,1,758.52,508.22Z" transform="translate(-741.49 -508.22)"/></svg>