<svg id="Layer_1" data-name="Layer 1" xmlns="http://www.w3.org/2000/svg" viewBox="0 0 30.36 42.36"><path d="M764.29,539.31a10.9,10.9,0,0,1,3.45,8.37,11.39,11.39,0,0,1-6.9,10.8,19.38,19.38,0,0,1-8.34,1.62,25,25,0,0,1-8.61-1.47,17.48,17.48,0,0,1-6.51-3.93l2.1-3.42a15.43,15.43,0,0,0,5.58,3.51,20.39,20.39,0,0,0,7.44,1.35q5.16,0,8-2.25a7.51,7.51,0,0,0,2.82-6.21,7.36,7.36,0,0,0-2.82-6.12q-2.82-2.22-8.52-2.22h-3v-3.18l11.64-14.58H739.12v-3.84h27v3.06l-11.88,14.94Q760.84,536.1,764.29,539.31Z" transform="translate(-737.38 -517.74)"/></svg>