<svg id="Layer_1" data-name="Layer 1" xmlns="http://www.w3.org/2000/svg" viewBox="0 0 30.82 51.52"><path d="M771.62,510.28a1.6,1.6,0,0,1-.49,1.2,2.05,2.05,0,0,1-1.53.49H751.17l-3.06,17a37.27,37.27,0,0,1,4.57-.88,33.41,33.41,0,0,1,4.14-.27,20,20,0,0,1,7,1.13,14.07,14.07,0,0,1,5.06,3.17,13.34,13.34,0,0,1,3.07,4.84,17.32,17.32,0,0,1,1,6.12,17.65,17.65,0,0,1-1.41,7.22,16.33,16.33,0,0,1-3.79,5.42,16.59,16.59,0,0,1-5.6,3.42,19.51,19.51,0,0,1-6.81,1.19,20.88,20.88,0,0,1-4-.38,23.16,23.16,0,0,1-3.6-1,19.2,19.2,0,0,1-3.09-1.46,20.34,20.34,0,0,1-2.49-1.69l1-1.4a1.18,1.18,0,0,1,1-.54,2.9,2.9,0,0,1,1.35.54,24,24,0,0,0,2.27,1.18,21.57,21.57,0,0,0,3.28,1.19,16.13,16.13,0,0,0,4.41.54,15.79,15.79,0,0,0,5.51-.95,12.85,12.85,0,0,0,4.44-2.76,12.34,12.34,0,0,0,2.95-4.44,16,16,0,0,0,1.07-6,15.13,15.13,0,0,0-.81-5,10.39,10.39,0,0,0-2.45-3.94,11.17,11.17,0,0,0-4.14-2.55,16.91,16.91,0,0,0-5.89-.92,32.09,32.09,0,0,0-4.35.32,39,39,0,0,0-4.9,1l-2.23-.69,4-22.57h22.9Z" transform="translate(-742.17 -508.8)"/></svg>