<svg id="Layer_1" data-name="Layer 1" xmlns="http://www.w3.org/2000/svg" viewBox="0 0 31.56 42.72"><path d="M764.71,536.16a12,12,0,0,1,5,4.41,12.15,12.15,0,0,1,1.8,6.63,12.41,12.41,0,0,1-1.86,6.78,12.28,12.28,0,0,1-5.13,4.53,16.59,16.59,0,0,1-7.35,1.59q-8.34,0-12.78-5.49T740,539.1a26.65,26.65,0,0,1,2.4-11.88,16.81,16.81,0,0,1,6.72-7.35,19.83,19.83,0,0,1,10.08-2.49q6.24,0,10,2.28l-1.74,3.48a14.66,14.66,0,0,0-8.16-2q-7,0-10.92,4.41t-4,12.81q0,1.5.18,3.42a11.32,11.32,0,0,1,5-5.31,16,16,0,0,1,7.86-1.89A16.61,16.61,0,0,1,764.71,536.16Zm-.3,17.79a8.37,8.37,0,0,0,2.85-6.63,8.28,8.28,0,0,0-2.85-6.6,11.4,11.4,0,0,0-7.71-2.46,12.51,12.51,0,0,0-5.61,1.2,9.45,9.45,0,0,0-3.81,3.3,8.34,8.34,0,0,0-1.38,4.68,8.15,8.15,0,0,0,1.29,4.44,9.27,9.27,0,0,0,3.81,3.3,13.28,13.28,0,0,0,6,1.26A10.85,10.85,0,0,0,764.41,554Z" transform="translate(-739.96 -517.38)"/></svg>