<svg id="Layer_1" data-name="Layer 1" xmlns="http://www.w3.org/2000/svg" viewBox="0 0 32.52 42.72"><path d="M770.11,541.68a9.81,9.81,0,0,1,2.13,6.36,10.59,10.59,0,0,1-2,6.39,12.49,12.49,0,0,1-5.67,4.2,23.35,23.35,0,0,1-8.67,1.47q-7.56,0-11.88-3.24a10.44,10.44,0,0,1-4.32-8.82,10,10,0,0,1,2.07-6.39,12.48,12.48,0,0,1,6-3.93,10.48,10.48,0,0,1-4.92-3.63,9.45,9.45,0,0,1-1.68-5.61,9.61,9.61,0,0,1,4-8.1q4-3,10.71-3a20.59,20.59,0,0,1,7.77,1.35,11.75,11.75,0,0,1,5.19,3.87,9.63,9.63,0,0,1,1.86,5.88,9.22,9.22,0,0,1-1.74,5.61,10.87,10.87,0,0,1-5,3.63A12.76,12.76,0,0,1,770.11,541.68Zm-5.46,12.48A7.23,7.23,0,0,0,767.8,548a7.16,7.16,0,0,0-3.15-6.15q-3.15-2.25-8.73-2.25t-8.67,2.25A7.16,7.16,0,0,0,744.1,548a7.24,7.24,0,0,0,3.12,6.21q3.12,2.25,8.7,2.25T764.65,554.16Zm-16.35-20q2.76,2,7.62,2a12.72,12.72,0,0,0,7.65-2,6.43,6.43,0,0,0,2.79-5.46,6.5,6.5,0,0,0-2.85-5.58,12.78,12.78,0,0,0-7.59-2,12.61,12.61,0,0,0-7.59,2,6.88,6.88,0,0,0,0,11Z" transform="translate(-739.72 -517.38)"/></svg>