<svg id="Layer_1" data-name="Layer 1" xmlns="http://www.w3.org/2000/svg" viewBox="0 0 33.12 52.09"><path d="M757.72,560.32a21.93,21.93,0,0,1-6.71-1,15,15,0,0,1-5.22-2.8,13,13,0,0,1-3.4-4.43,13.43,13.43,0,0,1-1.23-5.83,14.43,14.43,0,0,1,.81-5,11.6,11.6,0,0,1,2.29-3.81,12.74,12.74,0,0,1,3.51-2.7,17.65,17.65,0,0,1,4.48-1.62,14.93,14.93,0,0,1-4-1.77,11.21,11.21,0,0,1-2.9-2.66,11.59,11.59,0,0,1-1.78-3.44,13,13,0,0,1-.61-4,12.61,12.61,0,0,1,1-5.08A12.17,12.17,0,0,1,747,512a13.76,13.76,0,0,1,4.63-2.77,19,19,0,0,1,12.24,0,14,14,0,0,1,4.64,2.77,12.09,12.09,0,0,1,2.95,4.14,12.61,12.61,0,0,1,1,5.08,13.31,13.31,0,0,1-.61,4,11.42,11.42,0,0,1-1.8,3.44,11.64,11.64,0,0,1-2.92,2.66,14.93,14.93,0,0,1-4,1.77,17.51,17.51,0,0,1,4.48,1.62,12.74,12.74,0,0,1,3.51,2.7,11.82,11.82,0,0,1,2.31,3.81,14.19,14.19,0,0,1,.82,5,13.43,13.43,0,0,1-1.22,5.83,13.08,13.08,0,0,1-3.4,4.43,15,15,0,0,1-5.22,2.8A22,22,0,0,1,757.72,560.32Zm0-2.74a16.44,16.44,0,0,0,5.31-.81,12.37,12.37,0,0,0,4.13-2.3,10.15,10.15,0,0,0,2.66-3.59,11.25,11.25,0,0,0,.94-4.64,11.46,11.46,0,0,0-1.23-5.58,10.14,10.14,0,0,0-3.13-3.56,12.33,12.33,0,0,0-4.21-1.89,18.08,18.08,0,0,0-8.93,0,12.24,12.24,0,0,0-4.21,1.89,10.14,10.14,0,0,0-3.13,3.56,11.46,11.46,0,0,0-1.23,5.58,11.09,11.09,0,0,0,.94,4.64,10.21,10.21,0,0,0,2.64,3.59,12.09,12.09,0,0,0,4.13,2.3A16.59,16.59,0,0,0,757.72,557.58Zm0-25.7a13.19,13.19,0,0,0,5.06-.89,10,10,0,0,0,3.55-2.37,9.7,9.7,0,0,0,2.07-3.4,12.1,12.1,0,0,0,.66-4,11,11,0,0,0-.75-4.09,9.25,9.25,0,0,0-2.22-3.29,10.26,10.26,0,0,0-3.56-2.2,15.07,15.07,0,0,0-9.63,0,10.16,10.16,0,0,0-3.58,2.2,9.38,9.38,0,0,0-2.22,3.29,11,11,0,0,0-.75,4.09,12.1,12.1,0,0,0,.66,4,9.7,9.7,0,0,0,2.07,3.4,10,10,0,0,0,3.55,2.37A13.31,13.31,0,0,0,757.72,531.88Z" transform="translate(-741.16 -508.22)"/></svg>