<svg id="Capa_1" enable-background="new 0 0 512.099 512.099" height="512" viewBox="0 0 512.099 512.099" width="512" xmlns="http://www.w3.org/2000/svg"><g><path d="m449.516 367.917-36.253-90.674 89.752-38.459c5.51-2.362 9.084-7.779 9.084-13.787.01-6.018-3.605-11.435-9.084-13.787l-89.752-38.459 36.253-90.674c2.237-5.573.15-11.565-3.889-15.604s-10.032-6.127-15.604-3.889l-90.674 36.253-38.46-89.753c-2.352-5.479-7.769-9.094-13.787-9.084-6.008 0-11.425 3.574-13.787 9.084l-38.459 89.752-90.674-36.253c-5.573-2.237-11.932-.932-16.179 3.315s-5.552 10.607-3.315 16.179l43.571 108.93 76.416 76.416 76.415 76.415 108.931 43.572c5.573 2.237 11.932.932 16.179-3.315 4.248-4.246 5.553-10.606 3.316-16.178z" fill="#ffdf80"/><path d="m430.022 387.41c5.573 2.237 11.932.932 16.179-3.315s5.552-10.607 3.315-16.179l-36.253-90.674 89.752-38.459c5.51-2.362 9.084-7.779 9.084-13.787.01-6.018-3.605-11.435-9.084-13.787l-89.752-38.459 36.253-90.674c2.237-5.573.15-11.565-3.889-15.604l-200.951 200.951 76.415 76.415z" fill="#ffc44d"/><path d="m315.746 196.353c-.554-10.731-4.758-21.31-12.937-29.489-5.863-5.863-15.351-5.863-21.213 0-5.863 5.863-5.863 15.351 0 21.213 5.852 5.852 5.852 15.361 0 21.213l-21.213 21.213c-5.863 5.863-5.863 15.351 0 21.213s15.351 5.863 21.213 0l21.213-21.213c9.367-9.367 13.57-21.859 12.937-34.15z" fill="#f3f5f9"/><path d="m281.595 251.717 21.213-21.213c9.368-9.368 13.57-21.859 12.937-34.15l-55.364 55.364c5.864 5.861 15.352 5.861 21.214-.001z" fill="#e1e6f0"/><g><path d="m347.872 39.102 11.477-27.718c3.169-7.645 11.953-11.29 19.597-8.121 7.613 3.159 11.311 11.953 8.121 19.597l-11.477 27.718c-3.17 7.644-11.953 11.29-19.597 8.121-7.633-3.163-11.296-11.941-8.121-19.597z" fill="#ffdf80"/></g><g><path d="m453.4 156.106c-3.17-7.644.476-16.428 8.121-19.597l27.718-11.477c7.655-3.18 16.449.497 19.597 8.121 3.17 7.644-.477 16.427-8.121 19.597l-27.718 11.477c-7.661 3.177-16.437-.494-19.597-8.121z" fill="#ffc44d"/></g><circle cx="164.923" cy="347.176" fill="#4d5e80" r="165"/><path d="m281.595 463.849c64.334-64.334 64.334-169.012 0-233.345l-233.345 233.345c64.334 64.333 169.012 64.333 233.345 0z" fill="#3d4566"/><g><path d="m65.368 133.152c3.17-7.644 11.953-11.29 19.597-8.121l27.718 11.477c7.613 3.18 11.29 11.953 8.121 19.597-3.17 7.644-11.953 11.29-19.597 8.121l-27.718-11.476c-7.633-3.163-11.296-11.942-8.121-19.598z" fill="#ffdf80"/></g><g><path d="m198.614 50.578-11.477-27.718c-3.17-7.644.476-16.428 8.121-19.597 7.655-3.18 16.438.487 19.597 8.121l11.477 27.718c3.17 7.644-.476 16.428-8.121 19.597-7.661 3.177-16.437-.493-19.597-8.121z" fill="#ffdf80"/></g><g><path d="m453.4 293.888c3.17-7.644 11.953-11.29 19.597-8.121l27.718 11.477c7.624 3.17 11.301 11.943 8.121 19.597-3.17 7.644-11.953 11.29-19.597 8.121l-27.718-11.477c-7.633-3.163-11.296-11.941-8.121-19.597z" fill="#ffc44d"/></g><g><path d="m359.349 438.61-11.477-27.718c-3.17-7.644.476-16.428 8.121-19.597 7.655-3.18 16.438.508 19.597 8.121l11.477 27.718c3.17 7.644-.476 16.428-8.121 19.597-7.661 3.177-16.436-.494-19.597-8.121z" fill="#ffc44d"/></g></g></svg>