<svg id="Layer_1" data-name="Layer 1" xmlns="http://www.w3.org/2000/svg" viewBox="0 0 33.01 52.09"><path d="M758.91,508.22a18.36,18.36,0,0,1,5.51.81,13.33,13.33,0,0,1,4.56,2.43,11.55,11.55,0,0,1,3.11,4,12.73,12.73,0,0,1,1.15,5.58,12.46,12.46,0,0,1-.77,4.48,11.54,11.54,0,0,1-2.13,3.51,12.36,12.36,0,0,1-3.18,2.54,16.48,16.48,0,0,1-4,1.56q5.61,1.05,8.48,4.34a12.1,12.1,0,0,1,2.86,8.23,13.51,13.51,0,0,1-1.26,5.81,14.11,14.11,0,0,1-3.46,4.63,16.14,16.14,0,0,1-5.18,3,18.68,18.68,0,0,1-6.48,1.1,19.48,19.48,0,0,1-7.25-1.17,13.78,13.78,0,0,1-7.69-7.24,32.4,32.4,0,0,1-1.69-4.63l1.37-.57a2.1,2.1,0,0,1,.82-.18,1.67,1.67,0,0,1,.76.18,1.16,1.16,0,0,1,.54.68l.25.72c.15.43.35,1,.61,1.6a14.49,14.49,0,0,0,1,2,13.4,13.4,0,0,0,1.57,2.06,10.06,10.06,0,0,0,2.28,1.83,13,13,0,0,0,3.17,1.32,16,16,0,0,0,4.19.5,13.85,13.85,0,0,0,5.67-1.08,13.08,13.08,0,0,0,4.07-2.75,11.21,11.21,0,0,0,2.45-3.75,11,11,0,0,0,.81-4,12.67,12.67,0,0,0-.74-4.36,8.15,8.15,0,0,0-2.46-3.47,12.75,12.75,0,0,0-4.56-2.31,24.71,24.71,0,0,0-7-.84v-2.49a20.3,20.3,0,0,0,5.83-.88,12.62,12.62,0,0,0,4.21-2.21A9.16,9.16,0,0,0,769,525.9a10.52,10.52,0,0,0,.86-4.28,11.23,11.23,0,0,0-.9-4.68,9.27,9.27,0,0,0-2.41-3.28,9.81,9.81,0,0,0-3.53-1.91,14.34,14.34,0,0,0-4.21-.61,13.07,13.07,0,0,0-4.43.72,11.43,11.43,0,0,0-6.16,5.13,14.43,14.43,0,0,0-1.54,4c-.2.84-.64,1.26-1.34,1.26a1.37,1.37,0,0,1-.39,0l-1.77-.28a18.5,18.5,0,0,1,1.8-5.84,14.52,14.52,0,0,1,3.39-4.32,14.31,14.31,0,0,1,4.75-2.68A18,18,0,0,1,758.91,508.22Z" transform="translate(-741.49 -508.22)"/></svg>