<svg id="Layer_1" data-name="Layer 1" xmlns="http://www.w3.org/2000/svg" viewBox="0 0 32.8 51.52"><path d="M759.45,529.28a16.51,16.51,0,0,1,6,1.08,13.64,13.64,0,0,1,7.9,7.8,16.36,16.36,0,0,1,1.14,6.24,16.1,16.1,0,0,1-1.25,6.38,15.13,15.13,0,0,1-3.45,5,15.82,15.82,0,0,1-5.31,3.31,18.91,18.91,0,0,1-6.81,1.19,17.74,17.74,0,0,1-6.51-1.16,14,14,0,0,1-5.06-3.31,14.91,14.91,0,0,1-3.26-5.27,20.15,20.15,0,0,1-1.15-7,18.34,18.34,0,0,1,1.51-6.75,39.7,39.7,0,0,1,5-8.44l13.9-18.72a2.13,2.13,0,0,1,1.83-.83h3l-15.2,19.84c-.74,1-1.42,1.9-2,2.77s-1.19,1.71-1.69,2.55a15.23,15.23,0,0,1,5-3.43A16.05,16.05,0,0,1,759.45,529.28Zm-14.36,15.09a15.1,15.1,0,0,0,.88,5.25,12.16,12.16,0,0,0,2.5,4.16,11.11,11.11,0,0,0,4,2.72,13.55,13.55,0,0,0,5.26,1,15.2,15.2,0,0,0,5.58-1,12.58,12.58,0,0,0,4.23-2.68,11.64,11.64,0,0,0,2.68-4.07,13.85,13.85,0,0,0,.94-5.13,14.46,14.46,0,0,0-.92-5.27,11.16,11.16,0,0,0-2.59-4,11.64,11.64,0,0,0-4-2.52,14.16,14.16,0,0,0-5.11-.88,13.79,13.79,0,0,0-5.67,1.1,13.49,13.49,0,0,0-4.23,2.84,11.81,11.81,0,0,0-2.63,4A12,12,0,0,0,745.09,544.37Z" transform="translate(-741.74 -508.8)"/></svg>