<svg id="Layer_1" data-name="Layer 1" xmlns="http://www.w3.org/2000/svg" viewBox="0 0 28.68 43.47"><path d="M754.87,516.27a15.67,15.67,0,0,1,5.1.81,11.79,11.79,0,0,1,4.1,2.36,11,11,0,0,1,2.71,3.76,12.25,12.25,0,0,1,1,5,13.25,13.25,0,0,1-.72,4.44,18.14,18.14,0,0,1-1.95,3.92,28.71,28.71,0,0,1-2.83,3.63c-1.07,1.16-2.21,2.36-3.41,3.58l-11.31,11.58a22.34,22.34,0,0,1,2.43-.52,15.16,15.16,0,0,1,2.37-.2h14.4a1.86,1.86,0,0,1,1.38.51,1.79,1.79,0,0,1,.51,1.32v3.24H740v-1.83a3.33,3.33,0,0,1,.23-1.17,3.1,3.1,0,0,1,.73-1.11l13.77-13.83q1.71-1.74,3.12-3.34a24.47,24.47,0,0,0,2.42-3.23,15,15,0,0,0,1.54-3.28,11.49,11.49,0,0,0,.54-3.56,8.47,8.47,0,0,0-.6-3.31,6.43,6.43,0,0,0-1.65-2.36,6.93,6.93,0,0,0-2.46-1.39,9.62,9.62,0,0,0-3-.47,9.07,9.07,0,0,0-3,.48,8.09,8.09,0,0,0-4.24,3.36,7.91,7.91,0,0,0-1,2.58,2.39,2.39,0,0,1-.72,1.26,1.94,1.94,0,0,1-1.26.39H744l-.38,0-2.79-.48a15.78,15.78,0,0,1,1.62-5.2,12.44,12.44,0,0,1,3-3.8,13,13,0,0,1,4.23-2.32A16.14,16.14,0,0,1,754.87,516.27Z" transform="translate(-739.96 -516.27)"/></svg>