<svg id="Layer_1" data-name="Layer 1" xmlns="http://www.w3.org/2000/svg" viewBox="0 0 28.86 43.95"><path d="M755.44,516.27a15.67,15.67,0,0,1,5,.78,11.76,11.76,0,0,1,4,2.22,10,10,0,0,1,2.59,3.48,10.79,10.79,0,0,1,.93,4.53,11.74,11.74,0,0,1-.52,3.65,8.86,8.86,0,0,1-1.5,2.82,9,9,0,0,1-2.36,2,13.13,13.13,0,0,1-3.09,1.35,11.68,11.68,0,0,1,6.32,3.72,10,10,0,0,1,2.11,6.54,12.3,12.3,0,0,1-1.12,5.34,12,12,0,0,1-3.08,4,13.91,13.91,0,0,1-4.54,2.55,17.43,17.43,0,0,1-5.57.88,17.71,17.71,0,0,1-5.85-.85,12.31,12.31,0,0,1-4.11-2.36,12.52,12.52,0,0,1-2.76-3.55,26.68,26.68,0,0,1-1.83-4.46l2.28-1a3.18,3.18,0,0,1,1.26-.27,2.2,2.2,0,0,1,1.07.26,1.6,1.6,0,0,1,.7.79l.12.26.12.28c.28.58.62,1.24,1,2a8.3,8.3,0,0,0,1.62,2,8.79,8.79,0,0,0,2.54,1.62,9.41,9.41,0,0,0,3.76.66,9.87,9.87,0,0,0,3.95-.73,8.61,8.61,0,0,0,2.82-1.91,8,8,0,0,0,1.69-2.61,7.7,7.7,0,0,0,.57-2.85,10.31,10.31,0,0,0-.46-3.18,5.48,5.48,0,0,0-1.68-2.49,8.65,8.65,0,0,0-3.36-1.65,21,21,0,0,0-5.51-.6v-3.9a16.7,16.7,0,0,0,4.67-.57,9.07,9.07,0,0,0,3.16-1.56,5.8,5.8,0,0,0,1.79-2.37,8.13,8.13,0,0,0,.55-3.06,8.26,8.26,0,0,0-.58-3.24,6.24,6.24,0,0,0-1.61-2.28,6.69,6.69,0,0,0-2.41-1.35,9.8,9.8,0,0,0-3-.45,9.07,9.07,0,0,0-3,.48,8.1,8.1,0,0,0-2.44,1.33,7.78,7.78,0,0,0-1.79,2,9.52,9.52,0,0,0-1.08,2.56,2.39,2.39,0,0,1-.72,1.26,1.89,1.89,0,0,1-1.23.39h-.31l-.38,0-2.79-.47a15.78,15.78,0,0,1,1.62-5.2,12.44,12.44,0,0,1,3.05-3.8,13,13,0,0,1,4.23-2.32A16.14,16.14,0,0,1,755.44,516.27Z" transform="translate(-740.08 -516.27)"/></svg>