<svg id="Layer_1" data-name="Layer 1" xmlns="http://www.w3.org/2000/svg" viewBox="0 0 27.42 43.47"><path d="M766.18,519.09a2.58,2.58,0,0,1-.72,1.88,3.32,3.32,0,0,1-2.43.73h-13.5l-2,11.28a29.78,29.78,0,0,1,6.21-.72,16.42,16.42,0,0,1,5.93,1A12.19,12.19,0,0,1,764,536a11.37,11.37,0,0,1,2.63,4.11,14.64,14.64,0,0,1,.88,5.16,15.35,15.35,0,0,1-1.2,6.18,14.18,14.18,0,0,1-3.28,4.73,14.54,14.54,0,0,1-4.91,3,18.11,18.11,0,0,1-9.72.68,18.32,18.32,0,0,1-3.24-1,19.26,19.26,0,0,1-2.79-1.44,16.13,16.13,0,0,1-2.28-1.71l1.62-2.28a1.67,1.67,0,0,1,1.44-.78,2.7,2.7,0,0,1,1.34.47c.51.31,1.12.65,1.84,1a15.72,15.72,0,0,0,2.54,1,11.42,11.42,0,0,0,3.46.46,10.82,10.82,0,0,0,4-.72,8.62,8.62,0,0,0,3.08-2,9.29,9.29,0,0,0,2-3.2,11.92,11.92,0,0,0,.69-4.17,10.63,10.63,0,0,0-.58-3.63,7.13,7.13,0,0,0-1.77-2.76,8.14,8.14,0,0,0-3-1.77,12.34,12.34,0,0,0-4.14-.63,21.91,21.91,0,0,0-3.36.27,23.46,23.46,0,0,0-3.6.87l-3.36-1,3.48-20.1h20.37Z" transform="translate(-740.08 -516.75)"/></svg>