<svg id="Layer_1" data-name="Layer 1" xmlns="http://www.w3.org/2000/svg" viewBox="0 0 28.98 43.47"><path d="M756.34,533.4a14,14,0,0,1,4.89.86,11.61,11.61,0,0,1,6.81,6.51,13.71,13.71,0,0,1,1,5.44,14,14,0,0,1-1.08,5.52,13.48,13.48,0,0,1-3,4.44,13.93,13.93,0,0,1-4.67,3,16.17,16.17,0,0,1-6,1.08,15.84,15.84,0,0,1-5.86-1,12.7,12.7,0,0,1-4.49-2.94,12.94,12.94,0,0,1-2.86-4.62,17.42,17.42,0,0,1-1-6.08,16.32,16.32,0,0,1,1.26-6,30.47,30.47,0,0,1,4-6.84L756.22,518a3.33,3.33,0,0,1,1.17-.91,3.77,3.77,0,0,1,1.71-.38h4.74l-14.91,18.87a12.65,12.65,0,0,1,3.39-1.63A13.33,13.33,0,0,1,756.34,533.4Zm-11.1,13.08a11.35,11.35,0,0,0,.6,3.78,8.21,8.21,0,0,0,1.76,2.94,7.87,7.87,0,0,0,2.82,1.91,10.21,10.21,0,0,0,3.79.67,10.5,10.5,0,0,0,3.9-.69,8.83,8.83,0,0,0,3-1.92,8.49,8.49,0,0,0,1.92-2.91,9.73,9.73,0,0,0,.67-3.66,10.45,10.45,0,0,0-.66-3.8,8.18,8.18,0,0,0-1.86-2.87,8.09,8.09,0,0,0-2.88-1.82,10.43,10.43,0,0,0-3.69-.63,9.93,9.93,0,0,0-3.9.74,8.9,8.9,0,0,0-3,2,8.6,8.6,0,0,0-1.86,2.88A9.18,9.18,0,0,0,745.24,546.48Z" transform="translate(-740.08 -516.75)"/></svg>