<svg id="Layer_1" data-name="Layer 1" xmlns="http://www.w3.org/2000/svg" viewBox="0 0 28.98 43.95"><path d="M754.21,560.22a19.2,19.2,0,0,1-5.88-.85,13.81,13.81,0,0,1-4.59-2.45,10.87,10.87,0,0,1-3-3.85,12,12,0,0,1-1-5.09,10.53,10.53,0,0,1,2.16-6.82,11.78,11.78,0,0,1,6.18-3.83,9.77,9.77,0,0,1-6.84-9.75,10.64,10.64,0,0,1,3.57-8,12.5,12.5,0,0,1,4.1-2.4,16.67,16.67,0,0,1,10.63,0,12.44,12.44,0,0,1,4.11,2.4,10.64,10.64,0,0,1,3.57,8,10.24,10.24,0,0,1-1.74,6,10.45,10.45,0,0,1-5.1,3.76,11.78,11.78,0,0,1,6.18,3.83A10.53,10.53,0,0,1,768.7,548a11.86,11.86,0,0,1-1.06,5.09,11.11,11.11,0,0,1-3,3.85,13.66,13.66,0,0,1-4.58,2.45A19.2,19.2,0,0,1,754.21,560.22Zm0-4.26a11.35,11.35,0,0,0,3.77-.58,7.89,7.89,0,0,0,2.82-1.66,7,7,0,0,0,1.77-2.54,8.53,8.53,0,0,0,.61-3.29,8.87,8.87,0,0,0-.73-3.79,6.92,6.92,0,0,0-2-2.57,8.18,8.18,0,0,0-2.87-1.45,12.46,12.46,0,0,0-6.78,0,8.14,8.14,0,0,0-2.86,1.45,6.92,6.92,0,0,0-2,2.57,8.86,8.86,0,0,0-.74,3.79,8.53,8.53,0,0,0,.62,3.29,7,7,0,0,0,1.77,2.54,7.89,7.89,0,0,0,2.82,1.66A11.29,11.29,0,0,0,754.21,556Zm0-20.64a9,9,0,0,0,3.59-.64,6.44,6.44,0,0,0,3.76-4.16,9.73,9.73,0,0,0,.42-2.85,8,8,0,0,0-.49-2.82,6.51,6.51,0,0,0-1.47-2.31,6.87,6.87,0,0,0-2.43-1.56,10.28,10.28,0,0,0-6.75,0,6.87,6.87,0,0,0-2.43,1.56,6.51,6.51,0,0,0-1.47,2.31,8,8,0,0,0-.5,2.82,9.73,9.73,0,0,0,.42,2.85,6.61,6.61,0,0,0,1.35,2.45,6.69,6.69,0,0,0,2.42,1.71A9,9,0,0,0,754.21,535.32Z" transform="translate(-739.72 -516.27)"/></svg>