<svg id="Layer_1" data-name="Layer 1" xmlns="http://www.w3.org/2000/svg" viewBox="0 0 27.04 43.83"><path d="M748.27,535.78h4.07a9,9,0,0,0,6-2,6.74,6.74,0,0,0,2.19-5.3q0-7.5-7.47-7.5a7.77,7.77,0,0,0-5.61,2,7,7,0,0,0-2.09,5.32H740a10.87,10.87,0,0,1,3.71-8.43,13.52,13.52,0,0,1,9.41-3.35q6,0,9.47,3.19t3.42,8.88a9.38,9.38,0,0,1-1.8,5.39,10.85,10.85,0,0,1-4.9,3.9,10.47,10.47,0,0,1,5.43,3.69,10.26,10.26,0,0,1,1.92,6.3,11.65,11.65,0,0,1-3.75,9.11,14.07,14.07,0,0,1-9.76,3.37,14.41,14.41,0,0,1-9.77-3.26,10.77,10.77,0,0,1-3.76-8.58h5.45a7,7,0,0,0,2.19,5.39,8.36,8.36,0,0,0,5.89,2,8.2,8.2,0,0,0,6-2,7.9,7.9,0,0,0,2.08-5.89,7.15,7.15,0,0,0-2.29-5.71q-2.28-2-6.59-2h-4.07Z" transform="translate(-739.6 -516.5)"/></svg>