<svg id="Layer_1" data-name="Layer 1" xmlns="http://www.w3.org/2000/svg" viewBox="0 0 26.81 43.24"><path d="M742.88,538.35l2.17-21.27H766.9v5H749.65l-1.29,11.63a13.76,13.76,0,0,1,7.12-1.84,11.75,11.75,0,0,1,9.25,3.85q3.43,3.85,3.43,10.42t-3.56,10.38q-3.55,3.79-9.94,3.8a13.48,13.48,0,0,1-9.23-3.14,12.47,12.47,0,0,1-4.07-8.67h5.12a8.58,8.58,0,0,0,2.61,5.52,8.12,8.12,0,0,0,5.57,1.86,7.31,7.31,0,0,0,5.93-2.58,10.78,10.78,0,0,0,2.15-7.11,9.87,9.87,0,0,0-2.33-6.88,7.93,7.93,0,0,0-6.19-2.59,9,9,0,0,0-5.57,1.55l-1.43,1.18Z" transform="translate(-741.36 -517.08)"/></svg>