<svg id="Layer_1" data-name="Layer 1" xmlns="http://www.w3.org/2000/svg" viewBox="0 0 26.95 43.27"><path d="M761.66,517.05v4.6h-1q-6.33.12-10.08,3.75c-2.5,2.43-3.94,5.83-4.33,10.23a11.55,11.55,0,0,1,9.2-3.87,11.06,11.06,0,0,1,8.89,3.93,15.11,15.11,0,0,1,3.32,10.13q0,6.6-3.58,10.55a12.36,12.36,0,0,1-9.63,4,12.17,12.17,0,0,1-9.93-4.71q-3.81-4.7-3.81-12.11v-2.08q0-11.77,5-18t15-6.38Zm-7.12,19.22a9.1,9.1,0,0,0-8.38,5.86v2a14,14,0,0,0,2.37,8.49,7.12,7.12,0,0,0,5.92,3.22,6.89,6.89,0,0,0,5.76-2.69,13,13,0,0,0,0-14.17A6.84,6.84,0,0,0,754.54,536.27Z" transform="translate(-740.71 -517.05)"/></svg>