<svg id="Layer_1" data-name="Layer 1" xmlns="http://www.w3.org/2000/svg" viewBox="0 0 27.13 43.83"><path d="M766.26,528.22a9.84,9.84,0,0,1-1.69,5.68,11.48,11.48,0,0,1-4.55,3.9,12.2,12.2,0,0,1,5.29,4.19,10.57,10.57,0,0,1,1.94,6.24,11.12,11.12,0,0,1-3.73,8.81,14.35,14.35,0,0,1-9.83,3.29q-6.15,0-9.86-3.3a11.2,11.2,0,0,1-3.7-8.8A10.83,10.83,0,0,1,742,542a11.64,11.64,0,0,1,5.22-4.22,11.27,11.27,0,0,1-4.48-3.9,10.06,10.06,0,0,1-1.64-5.65,11,11,0,0,1,3.46-8.56,14.7,14.7,0,0,1,18.21,0A11,11,0,0,1,766.26,528.22Zm-4.43,19.89a7.84,7.84,0,0,0-2.27-5.83,8.06,8.06,0,0,0-5.93-2.26,7.63,7.63,0,0,0-8.08,8.09,7.54,7.54,0,0,0,2.15,5.71,9.63,9.63,0,0,0,12,0A7.58,7.58,0,0,0,761.83,548.11ZM753.69,521a7,7,0,0,0-5.17,2,8.17,8.17,0,0,0,0,10.63,7.73,7.73,0,0,0,10.4,0,8,8,0,0,0-.07-10.56A6.93,6.93,0,0,0,753.69,521Z" transform="translate(-740.13 -516.5)"/></svg>